<svg width="106" height="55" viewBox="0 0 106 55" fill="none" xmlns="http://www.w3.org/2000/svg">
<g clip-path="url(#clip0)">
<path fill-rule="evenodd" clip-rule="evenodd" d="M82.4925 34.9272C84.1122 34.9272 85.1941 36.503 84.6435 38.0657C84.3722 38.8484 83.8399 39.444 83.3072 40.04C83.2618 40.0908 83.2164 40.1416 83.1711 40.1926C82.7934 40.6141 82.4285 41.0485 82.1148 41.5154C81.6667 42.1833 81.4427 42.9549 81.2954 43.746C81.2506 43.9924 81.193 44.2324 81.1162 44.4658C80.7193 45.7497 79.6694 46.3528 78.3955 45.9572C76.8271 45.4709 75.95 44.3037 75.5275 42.7539C75.2266 41.6386 75.3995 40.5816 76.0717 39.6479C76.2765 39.3561 76.6222 39.1421 76.9423 38.9735C77.1943 38.8406 77.4808 38.773 77.7628 38.7065C77.8247 38.692 77.8863 38.6774 77.9474 38.6623C78.69 38.4807 79.2021 38.0333 79.5798 37.3719C79.8871 36.8337 80.2135 36.2955 80.6105 35.8221C81.0906 35.2515 81.7307 34.9272 82.4925 34.9272ZM98.9635 41.7164C98.8803 43.4024 98.1889 44.7446 96.7421 45.6395C96.1724 45.9896 95.5514 46.1582 94.8728 46.035C94.1686 45.9053 93.6501 45.5228 93.3876 44.8484C93.2276 44.4269 93.1124 43.986 93.0227 43.545C92.7603 42.2741 92.1841 41.1912 91.2751 40.2639C90.8142 39.7906 90.3981 39.2653 90.0268 38.7206C89.6875 38.2278 89.5082 37.6507 89.5786 37.0347C89.7899 35.2126 91.7424 34.3372 93.2468 35.3876C93.9254 35.861 94.3863 36.5224 94.7256 37.2681C95.0969 38.0657 95.705 38.5066 96.5309 38.7077C96.8958 38.7984 97.2607 38.9346 97.5999 39.1032C98.5794 39.5895 98.8675 40.4909 98.9571 41.5089C98.9667 41.5527 98.9655 41.6074 98.9643 41.6621V41.6621C98.9639 41.6803 98.9635 41.6986 98.9635 41.7164ZM87.7824 46.1942C87.5896 46.1633 87.3967 46.1323 87.2043 46.0996C87.2043 46.1058 87.2036 46.1128 87.2029 46.1199C87.2015 46.1351 87.1999 46.1512 87.2043 46.1644C87.0763 46.1741 86.9482 46.1806 86.8202 46.1871C86.6922 46.1936 86.5641 46.2001 86.4361 46.2098C85.7063 46.2682 84.9893 46.3914 84.3492 46.7675C83.1392 47.4808 83.056 48.9592 84.1891 49.7892C84.3961 49.9417 84.6274 50.0627 84.8574 50.183C84.9403 50.2264 85.0231 50.2698 85.1045 50.3144C85.227 50.3825 85.3521 50.4479 85.4772 50.5132C85.6858 50.6221 85.8944 50.7311 86.0904 50.8526C86.4105 51.0537 86.6409 51.3455 86.6601 51.741C86.705 52.6618 86.2696 53.4269 85.2134 53.4334H85.2134C85.0021 53.4334 84.7717 53.4334 84.5796 53.3621C84.3076 53.2635 84.0427 53.1488 83.7775 53.034C83.537 52.9299 83.2962 52.8256 83.0496 52.7331C82.9024 52.6748 82.6783 52.6748 82.5567 52.7591C82.4543 52.8304 82.3966 53.0638 82.4158 53.2065C82.4351 53.3232 82.5823 53.4464 82.6975 53.5307C84.4004 54.7173 86.2761 55.1712 88.3182 54.8859C89.5729 54.7109 90.7188 54.2375 91.7559 53.4918C92.0119 53.3102 92.076 53.0703 91.9415 52.8563C91.8007 52.6359 91.5702 52.5969 91.295 52.7526C91.2469 52.7785 91.2005 52.8044 91.1541 52.8304C91.1077 52.8563 91.0613 52.8823 91.0133 52.9082C90.3731 53.2584 89.7073 53.4983 88.9647 53.4269C88.3566 53.3621 87.9341 52.9925 87.7804 52.4024C87.6012 51.7086 87.742 51.2287 88.2798 50.8656C88.4691 50.7377 88.6736 50.6339 88.8781 50.5299C89.0262 50.4547 89.1743 50.3794 89.3168 50.295C89.3995 50.2468 89.4833 50.1998 89.5672 50.1527C89.867 49.9848 90.1679 49.8162 90.4179 49.5882C91.2309 48.849 91.1605 47.591 90.2771 46.9425C90.0082 46.7415 89.6881 46.5665 89.368 46.4886C88.8465 46.3649 88.3145 46.2796 87.7824 46.1942Z" fill="white"/>
<path fill-rule="evenodd" clip-rule="evenodd" d="M28.7247 54.9684V49.7069H8.36461L28.1019 25.6477V21.4863H0.460099V26.7478H19.8621L0.124756 50.8071V54.9684H28.7247ZM60.0392 38.2275C60.0392 44.1781 55.2053 49.0179 49.2228 49.0179C43.2403 49.0179 38.4063 44.1781 38.4063 38.2275C38.4063 32.2769 43.2403 27.4371 49.2228 27.4371C55.2053 27.4371 60.0392 32.2769 60.0392 38.2275ZM65.9899 38.2275C65.9899 47.4733 58.483 54.9686 49.2228 54.9686C39.9625 54.9686 32.4556 47.4733 32.4556 38.2275C32.4556 28.9817 39.9625 21.4865 49.2228 21.4865C58.483 21.4865 65.9899 28.9817 65.9899 38.2275Z" fill="white"/>
<path fill-rule="evenodd" clip-rule="evenodd" d="M57.3805 5.73695H54.6259V17.9779H57.3805V5.73695ZM54.7582 3.23833C55.0961 3.55926 55.5148 3.71972 56.0143 3.71972C56.5285 3.71972 56.9472 3.55161 57.2704 3.21541C57.6083 2.86392 57.7772 2.43602 57.7772 1.93171C57.7772 1.45797 57.6083 1.06828 57.2704 0.762635C56.9325 0.441712 56.5138 0.28125 56.0143 0.28125C55.5148 0.28125 55.0961 0.449353 54.7582 0.785558C54.4203 1.10648 54.2513 1.51146 54.2513 2.00048C54.2513 2.48951 54.4203 2.90213 54.7582 3.23833ZM48.2559 0.968943H51.0105V17.9779H48.2559V0.968943ZM21.0382 17.3361C21.9931 17.8709 23.0655 18.1384 24.2555 18.1384C25.4602 18.1384 26.54 17.8709 27.495 17.3361C28.4499 16.8012 29.1918 16.06 29.7207 15.1125C30.2643 14.1497 30.536 13.0647 30.536 11.8574C30.536 10.6501 30.2643 9.57276 29.7207 8.62527C29.1918 7.67778 28.4499 6.9366 27.495 6.40172C26.54 5.86685 25.4602 5.59941 24.2555 5.59941C23.0655 5.59941 21.9931 5.86685 21.0382 6.40172C20.0832 6.9366 19.334 7.67778 18.7904 8.62527C18.2615 9.57276 17.9971 10.6501 17.9971 11.8574C17.9971 13.0647 18.2615 14.1497 18.7904 15.1125C19.334 16.06 20.0832 16.8012 21.0382 17.3361ZM26.7677 14.6311C26.1066 15.3341 25.2692 15.6856 24.2555 15.6856C23.2418 15.6856 22.4044 15.3341 21.7433 14.6311C21.0969 13.9282 20.7737 13.0036 20.7737 11.8574C20.7737 10.7113 21.0969 9.78671 21.7433 9.08373C22.4044 8.38075 23.2418 8.02927 24.2555 8.02927C25.2692 8.02927 26.1066 8.38075 26.7677 9.08373C27.4288 9.78671 27.7594 10.7113 27.7594 11.8574C27.7594 13.0036 27.4288 13.9282 26.7677 14.6311ZM43.4173 6.95188C42.5211 6.05024 41.3311 5.59941 39.8473 5.59941C38.9805 5.59941 38.2019 5.74459 37.5114 6.03495C36.8209 6.32531 36.2479 6.75321 35.7925 7.31865V5.73695H33.1701V17.9779H35.9247V11.7887C35.9247 10.5967 36.2186 9.68737 36.8062 9.06081C37.3939 8.41896 38.1945 8.09803 39.2082 8.09803C40.1044 8.09803 40.7949 8.37311 41.2797 8.92327C41.7645 9.45814 42.0069 10.2604 42.0069 11.3302V17.9779H44.7615V10.9634C44.7615 9.1907 44.3134 7.85352 43.4173 6.95188ZM67.6731 5.59941C69.1569 5.59941 70.3469 6.05024 71.2431 6.95188C72.1393 7.85352 72.5874 9.1907 72.5874 10.9634V17.9779H69.8327V11.3302C69.8327 10.2604 69.5903 9.45814 69.1055 8.92327C68.6207 8.37311 67.9302 8.09803 67.0341 8.09803C66.0204 8.09803 65.2197 8.41896 64.632 9.06081C64.0444 9.68737 63.7506 10.5967 63.7506 11.7887V17.9779H60.996V5.73695H63.6184V7.31865C64.0738 6.75321 64.6467 6.32531 65.3372 6.03495C66.0277 5.74459 66.8064 5.59941 67.6731 5.59941ZM87.2078 12.7744C87.2372 12.4076 87.2518 12.1249 87.2518 11.9262C87.2518 10.6731 86.9948 9.57276 86.4806 8.62527C85.9811 7.6625 85.2759 6.92131 84.365 6.40172C83.4689 5.86685 82.4478 5.59941 81.3019 5.59941C80.1413 5.59941 79.0982 5.86685 78.1727 6.40172C77.2471 6.9366 76.5199 7.68542 75.991 8.64819C75.4768 9.59568 75.2197 10.6654 75.2197 11.8574C75.2197 13.0647 75.4842 14.1497 76.0131 15.1125C76.5566 16.06 77.3206 16.8012 78.3049 17.3361C79.2892 17.8709 80.4278 18.1384 81.7206 18.1384C82.7343 18.1384 83.6451 17.9703 84.4532 17.6341C85.2612 17.2978 85.9296 16.8012 86.4585 16.1441L84.9821 14.379C84.1447 15.2653 83.0795 15.7085 81.7867 15.7085C80.773 15.7085 79.9209 15.4487 79.2304 14.9291C78.5546 14.3943 78.1359 13.676 77.9743 12.7744H87.2078ZM79.0541 8.71696C79.6712 8.1668 80.4204 7.89173 81.3019 7.89173C82.1981 7.89173 82.9473 8.1668 83.5497 8.71696C84.152 9.26711 84.5119 9.98537 84.6295 10.8717H77.9523C78.0845 9.97009 78.4518 9.25183 79.0541 8.71696ZM72.5976 34.8989C70.6343 33.5845 69.3421 31.3485 69.3421 28.8111C69.3421 24.766 72.6264 21.4867 76.6779 21.4867C79.2695 21.4867 81.5472 22.8285 82.8521 24.8542C78.1008 26.4849 74.3187 30.1965 72.5976 34.8989ZM101.87 34.8989C103.833 33.5845 105.125 31.3485 105.125 28.8111C105.125 24.766 101.841 21.4867 97.7896 21.4867C95.198 21.4867 92.9203 22.8285 91.6153 24.8542C96.3666 26.4849 100.149 30.1965 101.87 34.8989Z" fill="white"/>
</g>
<defs>
<clipPath id="clip0">
<rect width="105" height="54.6875" fill="white" transform="translate(0.125 0.28125)"/>
</clipPath>
</defs>
</svg>
